<svg id="Layer_2" xmlns="http://www.w3.org/2000/svg" viewBox="0 0 105.87 136.75"><defs><style>.cls-1{fill:#60a353;}</style></defs><g id="logo"><circle class="cls-1" cx="53.37" cy="53" r="10"/><path class="cls-1" d="M53.32,0C23.93,0,0,23.92,0,53.32c0,1.95,.11,8.68,1.55,14.42,3.04,14.06,9.39,26.34,20.57,39.8,7.1,8.54,16.38,17.84,27.73,28.35,1.19,1.09,3,1.16,4.26,.16,3.58-2.87,10.24-8.44,17.19-15.51,1.3-1.32,1.25-3.44-.11-4.69-29.07-26.75-37.88-39.05-41.13-54.45l-.16-.67c-.34-1.28-.7-4.31-.7-7.4,0-13.3,10.83-24.13,24.13-24.13s23.35,9.96,23.35,23.15c0,8.32-9.38,16.45-19.57,23.9-1.47,1.07-1.79,3.14-.7,4.58,4.31,5.72,9.37,11.58,15.17,17.52,1.14,1.17,2.97,1.32,4.29,.34,5.41-4.02,10.83-8.43,15.49-13.37,9.63-10.21,14.52-21.31,14.52-32.97C105.87,22.99,82.79,0,53.32,0Zm28.36,83.67l-3.91,3.29c-1.63,1.37-4.06,1.16-5.43-.47l-3.29-3.91c-1.37-1.63-1.16-4.06,.47-5.43l3.91-3.29c1.63-1.37,4.07-1.16,5.43,.47l3.29,3.91c1.37,1.63,1.16,4.06-.47,5.43Z"/></g></svg>