<?xml version="1.0" encoding="UTF-8" standalone="no"?><!DOCTYPE svg PUBLIC "-//W3C//DTD SVG 1.1//EN" "http://www.w3.org/Graphics/SVG/1.1/DTD/svg11.dtd"><svg width="100%" height="100%" viewBox="0 0 7955 3667" version="1.1" xmlns="http://www.w3.org/2000/svg" xmlnsXlink="http://www.w3.org/1999/xlink" xmlSpace="preserve" xmlnsSerif="http://www.serif.com/" style="fill-rule:evenodd;clip-rule:evenodd;stroke-linecap:round;stroke-linejoin:round;"><g><g><g id="illustration_01_20_Layer44_0_FILL"><path d="M7762.73,3575.32c107.431,-68.633 166.628,-181.49 177.592,-338.572c10.485,-151.967 -62.09,-270.103 -217.726,-354.407c-63.02,-34.099 -137.495,-61.21 -223.425,-81.332c-74.032,-17.326 -151.705,-28.394 -233.02,-33.204c-279.436,-1.109 -613.714,-3.35 -1002.84,-6.723c-78.808,-0.071 -155.817,-0.276 -231.029,-0.614c-25.922,-0.19 -51.537,-0.377 -76.844,-0.561c-15.459,-0.482 -30.973,-0.862 -46.541,-1.14c-19.161,-0.114 -38.532,-0.077 -58.112,0.111c-20.079,-0.226 -40.007,-0.4 -59.782,-0.521c-1.434,-0.017 -2.92,-0.033 -4.456,-0.051c-221.863,-3.531 -359.273,-11.843 -412.232,-24.936c-97.683,-24.147 -144.843,-52.895 -141.479,-86.244c3.363,-33.349 31.407,-56.895 84.131,-70.637c52.621,-13.743 94.758,-21.921 126.409,-24.534c31.656,-2.714 104.967,-8.389 219.933,-17.024c115.072,-8.737 328.796,-14.72 641.171,-17.949l40.451,-0.619c33.847,-0.846 89.473,-1.702 166.877,-2.569c77.302,-0.867 153.751,-9.989 229.347,-27.365c75.599,-17.477 125.164,-45.645 148.695,-84.501c23.521,-38.844 18.919,-80.733 -13.806,-125.665c-32.604,-44.852 -122.321,-66.656 -269.15,-65.411c-130.577,0.25 -322.408,1.257 -575.495,3.021l-1139.55,-0.433c-62.085,-0.599 -92.731,-6.68 -91.936,-18.244c0.798,-11.666 27.148,-18.179 79.05,-19.539l1569.81,-12.678l0.22,-62.061l-1633.7,20.406c-34.5,1.966 -64.746,10.073 -90.739,24.322c-25.89,14.251 -37.625,31.221 -35.205,50.912c2.522,19.692 10.128,35.959 22.819,48.802c12.592,12.739 26.366,22.266 41.324,28.58c14.756,6.209 45.646,12.652 92.669,19.328c95.541,14.598 478.657,18.262 1149.35,10.99c233.151,-2.545 461.794,-5.697 685.931,-9.455c26.206,1.979 44.947,5.468 56.223,10.467c21.914,9.772 29.396,20.508 22.448,32.207c0.838,5.642 -3.581,12.147 -13.254,19.514c-19.45,14.733 -55.651,26.255 -108.604,34.567c-72.154,9.426 -323.403,20.515 -753.746,33.268c-430.443,12.649 -686.352,52.924 -767.727,120.827c-27.088,22.533 -46.614,58.055 -58.578,106.566c-12.067,48.511 10.759,100.18 68.479,155.01c57.723,54.727 180.661,82.18 368.815,82.361c158.992,1.899 382.343,5.344 670.053,10.336c118.198,2.053 214.792,3.503 289.782,4.35c73.891,3.088 128.04,6.567 162.448,10.438c54.628,6.045 98.627,15.811 131.999,29.297c39.442,15.808 68.471,38.155 87.084,67.041c5.913,9.121 10.862,19.009 14.848,29.664c-7.164,15.769 -17.424,29.991 -30.781,42.666c-28.149,26.719 -71.128,47.894 -128.936,63.525c-114.07,30.971 -304.176,43.264 -570.319,36.877c-34.236,-0.487 -64.763,-0.883 -91.581,-1.189c-490.617,-4.319 -1458.85,-5.377 -2904.69,-3.173c-804.967,1.218 978.773,-11.667 -3125.4,-38.657c4.272,143.187 5.947,317.771 5.025,523.753l7260.65,0.43c223.099,9.486 388.784,-20.391 497.055,-89.628m4719.98,-1501.93c0.105,-9.319 0.312,-20.173 0.621,-32.561l-0.621,32.561Z" style="fill:#60a353;fill-rule:nonzero;"/></g></g><g><g id="illustration_01_20_Layer43_0_FILL"><path d="M6009.34,827.54c9.133,8.023 16.212,18.233 21.237,30.63c1.29,2.777 2.308,5.413 3.054,7.908c5.738,18.667 4.932,37.353 -2.417,56.056c-0.387,0.548 -0.683,1.143 -0.889,1.786l-80.17,191.104l468.575,187.772l80.447,-191.1c0.298,-0.641 0.548,-1.237 0.75,-1.787c8.077,-18.419 20.841,-32.273 38.29,-41.561c2.438,-1.262 5.06,-2.522 7.867,-3.779c13.181,-5.653 26.345,-7.991 39.49,-7.013l35.734,-85.241c9.731,-32.122 2.181,-53.112 -22.649,-62.97l-484.807,-194.311c-31.475,-15.09 -55.553,-3.252 -72.232,35.514l-32.28,76.992Z" style="fill:#32552b;fill-rule:nonzero;"/></g><path id="illustration_01_20_Layer43_0_1_STROKES" d="M6621.29,972.23l-35.733,85.24m13.084,-148.209c24.83,9.858 32.38,30.847 22.649,62.969m-507.452,-257.279l484.803,194.31m-557.034,-158.796c16.678,-38.766 40.755,-50.604 72.231,-35.514m-104.511,112.505l32.28,-76.991" style="fill:none;fill-rule:nonzero;stroke:#32552b;stroke-width:15.2px;"/></g><g><g id="illustration_01_20_Layer43_0_MEMBER_0_FILL"><path d="M5918.64,814.101c-21.965,9.419 -37.551,25.125 -46.759,47.119c-9.116,21.994 -9.287,43.767 -0.514,65.319c5.792,14.245 14.349,25.666 25.672,34.265l-76.84,182.816c-15.227,31.224 -8.254,52.894 20.918,65.009l587.542,235.484c29.568,11.291 50.102,0.566 61.602,-32.174l76.697,-182.679c14.322,1.543 28.588,-0.782 42.798,-6.974c21.87,-9.328 37.407,-24.943 46.612,-46.845c9.208,-21.993 9.382,-43.858 0.523,-65.595c-8.859,-21.737 -24.198,-37.01 -46.017,-45.82c-8.643,-3.32 -17.374,-5.352 -26.194,-6.096c-13.054,-0.884 -26.17,1.5 -39.349,7.151c-2.711,1.167 -5.331,2.38 -7.86,3.64c-17.354,9.288 -30.115,23.138 -38.282,41.553c-0.295,0.549 -0.547,1.19 -0.755,1.925l-80.288,190.925l-468.485,-187.597l80.293,-191.063c0.205,-0.642 0.41,-1.238 0.612,-1.789c7.44,-18.698 8.336,-37.333 2.689,-55.903c-0.836,-2.587 -1.852,-5.269 -3.05,-8.045c-5.026,-12.302 -12.102,-22.556 -21.227,-30.762c-7.074,-6.156 -15.294,-11.083 -24.661,-14.78c-21.823,-8.717 -43.715,-8.412 -65.677,0.916Z" style="fill:#44733a;fill-rule:nonzero;"/></g><path id="illustration_01_20_Layer43_0_MEMBER_0_1_STROKES" d="M5871.45,926.447c-8.773,-21.552 -8.602,-43.325 0.514,-65.319c9.208,-21.993 24.794,-37.699 46.759,-47.119c21.961,-9.327 43.853,-9.632 65.676,-0.915c9.367,3.697 17.587,8.623 24.661,14.78c9.125,8.205 16.2,18.459 21.227,30.762c1.198,2.775 2.214,5.457 3.049,8.044c5.648,18.571 4.752,37.205 -2.688,55.904c-0.203,0.55 -0.407,1.146 -0.612,1.788l-80.292,191.062l468.482,187.596l80.287,-190.924c0.209,-0.734 0.46,-1.376 0.755,-1.925c8.168,-18.414 20.928,-32.265 38.282,-41.552c2.529,-1.261 5.149,-2.474 7.86,-3.64c13.179,-5.652 26.295,-8.036 39.349,-7.152c8.82,0.744 17.551,2.777 26.194,6.097c21.819,8.809 37.158,24.082 46.017,45.819c8.859,21.737 8.685,43.602 -0.523,65.595c-9.205,21.901 -24.742,37.516 -46.612,46.844c-14.21,6.193 -28.476,8.518 -42.798,6.975l-76.696,182.678c-11.5,32.74 -32.034,43.464 -61.602,32.174l-587.539,-235.484c-29.172,-12.115 -36.145,-33.784 -20.918,-65.009l76.839,-182.814c-11.323,-8.599 -19.88,-20.02 -25.671,-34.265Z" style="fill:none;fill-rule:nonzero;stroke:#44733a;stroke-width:15.2px;"/></g><g><g id="illustration_01_20_Layer43_0_MEMBER_1_FILL"><path d="M6159.32,828.697c-17.22,-8.573 -29.645,-2.038 -37.275,19.605l-34.866,84.266c-7.915,19.154 -4.643,31.575 9.817,37.262l95.889,38.097c17.039,5.717 28.964,-1.008 35.774,-20.174l37.987,-90.86c7.173,-16.216 1.772,-26.957 -16.203,-32.224l-91.123,-35.972Z" style="fill:#44733a;fill-rule:nonzero;"/></g><path id="illustration_01_20_Layer43_0_MEMBER_1_1_STROKES" d="M6087.26,932.476l34.865,-84.266c7.63,-21.642 20.055,-28.177 37.275,-19.604l91.122,35.971c17.976,5.267 23.377,16.008 16.204,32.224l-37.987,90.86c-6.81,19.166 -18.735,25.89 -35.774,20.174l-95.888,-38.097c-14.461,-5.687 -17.733,-18.108 -9.817,-37.262Z" style="fill:none;fill-rule:nonzero;stroke:#44733a;stroke-width:15.2px;"/></g><g><g id="illustration_01_20_Layer43_0_MEMBER_2_FILL"><path d="M6503.04,990.301c7.357,-16.214 2.094,-26.953 -15.789,-32.219l-90.948,-37.074c-17.132,-8.48 -29.6,-2.038 -37.405,19.326l-35.556,84.259c-8.004,19.061 -4.826,31.526 9.536,37.397l95.723,38.923c16.861,5.531 28.874,-1.054 36.037,-19.756l38.402,-90.856Z" style="fill:#44733a;fill-rule:nonzero;"/></g><path id="illustration_01_20_Layer43_0_MEMBER_2_1_STROKES" d="M6323.42,1024.5l35.556,-84.259c7.804,-21.364 20.273,-27.806 37.404,-19.326l90.947,37.073c17.883,5.266 23.146,16.006 15.789,32.22l-38.401,90.855c-7.164,18.702 -19.176,25.287 -36.037,19.757l-95.723,-38.924c-14.361,-5.87 -17.54,-18.336 -9.535,-37.396Z" style="fill:none;fill-rule:nonzero;stroke:#44733a;stroke-width:15.2px;"/></g><g><g id="illustration_01_20_Layer43_0_MEMBER_3_FILL"><path d="M6031.81,1030.55l-23.346,53.737c-4.488,10.261 -0.978,16.93 10.529,20.006l344.683,136.893c15.256,6.71 24.948,10.318 29.077,10.825c4.034,0.598 7.715,-3.411 11.042,-12.029l17.651,-40.404c4.107,-9.897 6.067,-16.182 5.879,-18.854c-0.191,-2.581 -1.637,-4.807 -4.339,-6.679c-2.793,-1.873 -24.108,-10.63 -63.942,-26.272l-256.928,-103.584c-9.373,-3.513 -19.965,-7.776 -31.776,-12.789c-10.358,-4.353 -16.997,-6.96 -19.917,-7.821c-5.105,-1.623 -8.964,-1.943 -11.577,-0.96c-2.609,0.892 -4.955,3.535 -7.036,7.931Z" style="fill:#44733a;fill-rule:nonzero;"/></g><path id="illustration_01_20_Layer43_0_MEMBER_3_1_STROKES" d="M6008.55,1084.2l23.346,-53.736c2.081,-4.396 4.426,-7.04 7.036,-7.931c2.612,-0.983 6.471,-0.664 11.577,0.959c2.919,0.862 9.559,3.469 19.917,7.821c11.811,5.014 22.403,9.277 31.776,12.789l256.926,103.584c39.834,15.642 61.148,24.399 63.942,26.272c2.702,1.872 4.148,4.098 4.339,6.678c0.187,2.673 -1.772,8.957 -5.879,18.855l-17.651,40.404c-3.327,8.617 -7.008,12.627 -11.042,12.029c-4.129,-0.507 -13.821,-4.116 -29.077,-10.825l-344.681,-136.893c-11.507,-3.076 -15.017,-9.745 -10.529,-20.006Z" style="fill:none;fill-rule:nonzero;stroke:#44733a;stroke-width:15.2px;"/></g><g><g id="illustration_01_20_Layer42_0_FILL"><path d="M4477.12,326.887l78.916,1060.26l408.98,-36.129l-78.915,-1060.26l-408.981,36.129m364.28,11.161l1.029,14.792l71.337,955.605l-307.917,27.325l-17.88,1.456l-72.229,-970.396l325.66,-28.782Z" style="fill:#44733a;fill-rule:nonzero;"/><path d="M4605.85,1335.77l307.917,-27.325l-71.337,-955.605l-304.031,26.817l67.451,956.113Z" style="fill:#fff;fill-rule:nonzero;"/><path d="M4842.43,352.84l-1.029,-14.792l-325.66,28.782l72.229,970.396l17.88,-1.456l-67.451,-956.113l304.031,-26.817m80.025,-32.939l-36.353,-29.143l78.915,1060.26l-408.98,36.129l40.345,17.17l404.268,-35.767l-78.195,-1048.65Z" style="fill:#32552b;fill-rule:nonzero;"/></g><path id="illustration_01_20_Layer42_0_1_STROKES" d="M4556.03,1387.06l40.345,17.17l404.265,-35.767l-78.195,-1048.64l-36.353,-29.143m-347.7,88.898l67.45,956.107m236.579,-982.923l-304.029,26.816" style="fill:none;fill-rule:nonzero;stroke:#32552b;stroke-width:15.2px;"/></g><g><path id="illustration_01_20_Layer42_0_MEMBER_0_1_STROKES" d="M4841.49,339.038l-325.592,28.777l72.356,970.056l325.592,-28.776l-72.356,-970.057Zm44.687,-47.142l-408.891,35.983l79.047,1059.77l408.89,-35.984l-79.046,-1059.76Z" style="fill:none;fill-rule:nonzero;stroke:#44733a;stroke-width:15.2px;"/></g><g><g id="illustration_01_20_Layer41_0_FILL"><path d="M4968.75,968.56c-95.521,90.183 -186.738,225.493 -273.649,405.93c-62.063,128.779 -118.207,272.129 -168.43,430.05c-25.113,79.006 -44.035,145.052 -56.767,198.137c410.737,-22.434 763.113,-26.05 1057.13,-10.848c294.112,15.111 498.613,21.658 613.503,19.641c-55.604,-292.649 -129.93,-532.188 -222.979,-718.619c-93.046,-186.522 -183.098,-312.047 -270.156,-376.573c-31.636,-21.355 -53.79,-35.465 -66.463,-42.33c-12.489,-6.864 -26.031,-13.924 -40.627,-21.18c-14.497,-7.439 -35.548,-14.538 -63.154,-21.296c-27.51,-6.849 -60.997,-12.707 -100.462,-17.573c-39.369,-4.958 -83.811,-4.217 -133.327,2.223c-87.558,11.443 -179.097,62.256 -274.619,152.438Z" style="fill:#e5f7bb;fill-rule:nonzero;"/></g><path id="illustration_01_20_Layer41_0_1_STROKES" d="M4469.9,2002.58c12.731,-53.084 31.654,-119.129 56.767,-198.135c50.222,-157.92 106.365,-301.269 168.428,-430.047c86.911,-180.435 178.127,-315.744 273.647,-405.926c95.521,-90.183 187.06,-140.995 274.617,-152.438c49.516,-6.439 93.958,-7.18 133.326,-2.223c39.464,4.866 72.951,10.724 100.461,17.573c27.606,6.758 48.657,13.857 63.154,21.296c14.595,7.256 28.137,14.316 40.626,21.179c12.673,6.866 34.827,20.976 66.463,42.33c87.058,64.526 177.109,190.05 270.154,376.571c93.048,186.429 167.374,425.967 222.977,718.614c-114.889,2.017 -319.389,-4.53 -613.498,-19.641c-294.015,-15.202 -646.389,-11.586 -1057.12,10.847Z" style="fill:none;fill-rule:nonzero;stroke:#e5f7bb;stroke-width:15.2px;"/></g><g><g id="illustration_01_20_Layer39_0_FILL"><path d="M4132.98,1083.43c-8.926,3.381 -20.403,9.499 -34.43,18.353c-28.058,17.81 -54.951,40.652 -80.679,68.525c-82.279,88.888 -137.589,211.211 -165.93,366.97c-5.065,-1.798 -11.782,-3.205 -20.152,-4.222c-16.538,-1.928 -32.714,-0.881 -48.528,3.139c-50.736,12.536 -88.172,51.952 -112.309,118.248l-7.763,25.414c-5.861,22.157 -10.358,46.43 -13.49,72.817c-10.28,84.171 -5.395,173.02 14.655,266.546l153.489,2.502c90.03,4.493 245.157,7.014 465.383,7.563c220.328,0.55 418.438,0.28 594.33,-0.812c7.003,-74.99 4.93,-148.24 -6.219,-219.749c-22.508,-142.917 -55.105,-269.05 -97.79,-378.399c-59.993,-152.865 -149.576,-266.533 -268.747,-341.004c-119.267,-74.676 -243.207,-76.64 -371.82,-5.891Z" style="fill:#cde9a4;fill-rule:nonzero;"/></g><path id="illustration_01_20_Layer39_0_1_STROKES" d="M3664.36,2019.22l153.489,2.502c90.03,4.493 245.183,7.014 465.46,7.564c220.277,0.549 418.361,0.279 594.253,-0.813c7.003,-74.99 4.93,-148.24 -6.219,-219.749c-22.508,-142.917 -55.105,-269.05 -97.79,-378.399c-59.993,-152.865 -149.576,-266.533 -268.747,-341.004c-119.267,-74.676 -243.207,-76.64 -371.82,-5.891c-8.926,3.381 -20.403,9.499 -34.43,18.353c-28.058,17.81 -54.951,40.652 -80.679,68.525c-82.279,88.888 -137.589,211.211 -165.93,366.97c-5.065,-1.798 -11.782,-3.205 -20.152,-4.222c-16.538,-1.928 -32.714,-0.881 -48.528,3.139c-50.736,12.536 -88.172,51.952 -112.309,118.248l-7.763,25.414c-5.861,22.157 -10.358,46.43 -13.49,72.817c-10.28,84.171 -5.395,173.02 14.655,266.546Z" style="fill:none;fill-rule:nonzero;stroke:#cde9a4;stroke-width:15.2px;"/></g><g><g id="illustration_01_20_Layer38_0_FILL"><path d="M6160.06,1736.38c-29.753,16.24 -57.149,44.755 -82.189,85.544c-13.777,-18.021 -32.39,-40.241 -55.84,-66.66c-46.718,-52.743 -94.823,-101.22 -144.313,-145.431c-0.181,-0.094 -0.317,-0.187 -0.406,-0.28c-49.76,-44.398 -112.995,-85.448 -189.702,-123.151c-76.889,-37.798 -148.908,-51.642 -216.055,-41.534c-18.153,-0.021 -42.382,3.895 -72.685,11.749c-60.238,15.711 -120.406,43.165 -180.503,82.361c-31.558,20.641 -62.24,44.053 -92.047,70.239c-49.642,43.458 -96.822,94.634 -141.54,153.528c-89.343,117.787 -166.331,263.066 -230.963,435.835l26.825,3.895c24.034,3.31 51.204,6.564 81.508,9.761c97.066,10.214 208.214,18.193 333.444,23.936c400.623,18.433 866.064,10.891 1396.32,-22.624c-0.223,-20.999 -2.297,-47.315 -6.221,-78.946c-8.036,-63.173 -24.137,-126.299 -48.302,-189.379c-24.347,-63.173 -68.955,-119.806 -133.824,-169.9c-64.865,-50.186 -121.454,-70.763 -169.767,-61.731c-19.501,-1.05 -44.082,6.546 -73.743,22.788Z" style="fill:#8ecc69;fill-rule:nonzero;"/></g><path id="illustration_01_20_Layer38_0_1_STROKES" d="M4753.81,2198.49l26.825,3.895c24.034,3.31 51.203,6.564 81.507,9.761c97.065,10.214 208.213,18.193 333.441,23.936c400.62,18.432 866.058,10.891 1396.31,-22.624c-0.223,-20.999 -2.296,-47.314 -6.221,-78.946c-8.035,-63.172 -24.136,-126.298 -48.302,-189.376c-24.346,-63.173 -68.954,-119.806 -133.822,-169.9c-64.865,-50.185 -121.454,-70.762 -169.766,-61.731c-19.501,-1.049 -44.082,6.547 -73.743,22.788c-29.752,16.24 -57.148,44.755 -82.188,85.544c-13.777,-18.021 -32.39,-40.241 -55.839,-66.659c-46.719,-52.743 -94.823,-101.22 -144.313,-145.43c-0.181,-0.094 -0.316,-0.188 -0.405,-0.281c-49.761,-44.397 -112.994,-85.447 -189.702,-123.15c-76.888,-37.797 -148.906,-51.642 -216.053,-41.534c-18.153,-0.021 -42.381,3.896 -72.684,11.749c-60.238,15.712 -120.405,43.165 -180.502,82.361c-31.558,20.64 -62.24,44.053 -92.047,70.238c-49.641,43.458 -96.82,94.634 -141.538,153.527c-89.343,117.787 -166.33,263.064 -230.961,435.832Z" style="fill:none;fill-rule:nonzero;stroke:#8ecc69;stroke-width:15.2px;"/></g><g><g id="illustration_01_20_Layer35_0_FILL"><path d="M5867.32,289.062c-22.118,0.026 -41.052,8.239 -56.803,24.637c-15.658,16.399 -23.505,36.202 -23.539,59.409c-0.038,23.298 7.78,43.14 23.454,59.525c15.767,16.387 34.708,24.566 56.826,24.54c22.207,0.067 41.14,-8.099 56.798,-24.499c15.751,-16.398 23.643,-36.201 23.678,-59.407c0.038,-23.299 -7.827,-43.141 -23.593,-59.527c-15.674,-16.386 -34.614,-24.611 -56.821,-24.678Z" style="fill:#eefad3;fill-rule:nonzero;"/></g><path id="illustration_01_20_Layer35_0_1_STROKES" d="M5947.72,373.249c-0.035,23.207 -7.927,43.009 -23.678,59.407c-15.658,16.4 -34.591,24.566 -56.798,24.499c-22.117,0.026 -41.059,-8.153 -56.825,-24.539c-15.674,-16.385 -23.492,-36.227 -23.454,-59.526c0.034,-23.206 7.881,-43.009 23.539,-59.408c15.751,-16.398 34.685,-24.611 56.802,-24.637c22.207,0.067 41.147,8.293 56.821,24.678c15.766,16.386 23.63,36.228 23.593,59.526Z" style="fill:none;fill-rule:nonzero;stroke:#eefad3;stroke-width:15.2px;"/></g><g><g id="illustration_01_20_Layer34_0_FILL"><path d="M5992.68,373.265c-0.107,-43.453 -14.947,-80.734 -44.52,-111.842c-29.498,-31.03 -65.074,-46.782 -106.726,-47.255c-41.652,-0.473 -77.189,14.47 -106.61,44.831c-18.703,19.426 -31.47,41.625 -38.301,66.599l-3.837,21.643c-0.509,3.938 -0.981,7.953 -1.416,12.046c-1.666,15.754 -2.476,32.754 -2.431,51.001c0.033,73.838 13.163,153.972 39.388,240.401l30.312,-15.08c24.721,-13.095 48.439,-27.168 71.155,-42.218c70.143,-46.599 118.199,-94.221 144.166,-142.868l2.656,-5.189c10.841,-21.602 16.229,-45.625 16.164,-72.069m-159.02,-65.709c16.369,-4.066 31.087,-1.309 44.154,8.272c13.215,9.583 20.956,23.201 23.223,40.855c2.193,17.731 -1.731,34.271 -11.773,49.62c-9.967,15.428 -23.135,25.174 -39.504,29.241c-16.368,4.144 -31.123,1.425 -44.264,-8.157c-13.142,-9.582 -20.846,-23.239 -23.113,-40.97c-2.192,-17.654 1.695,-34.155 11.662,-49.505c9.967,-15.428 23.172,-25.213 39.615,-29.356Z" style="fill:#e5595d;fill-rule:nonzero;"/></g><path id="illustration_01_20_Layer34_0_1_STROKES" d="M5992.59,373.175c0.065,26.443 -5.323,50.466 -16.164,72.069l-2.655,5.188c-25.968,48.647 -74.023,96.269 -144.165,142.866c-22.716,15.051 -46.434,29.123 -71.155,42.218l-30.311,15.08c-26.226,-86.429 -39.356,-166.562 -39.39,-240.4c-0.045,-18.247 0.766,-35.248 2.432,-51.001c0.434,-4.093 0.906,-8.108 1.415,-12.046l3.838,-21.643c6.83,-24.973 19.597,-47.173 38.299,-66.599c29.422,-30.36 64.958,-45.303 106.61,-44.83c41.652,0.474 77.227,16.225 106.726,47.256c29.573,31.108 44.413,68.389 44.52,111.842Zm-91.643,-16.583c2.193,17.731 -1.731,34.271 -11.772,49.62c-9.967,15.427 -23.135,25.174 -39.504,29.24c-16.368,4.144 -31.123,1.425 -44.264,-8.157c-13.142,-9.582 -20.846,-23.239 -23.113,-40.97c-2.192,-17.653 1.695,-34.155 11.662,-49.505c9.967,-15.427 23.172,-25.212 39.614,-29.355c16.369,-4.067 31.087,-1.309 44.154,8.272c13.215,9.583 20.957,23.201 23.223,40.855Z" style="fill:none;fill-rule:nonzero;stroke:#e5595d;stroke-width:15.2px;"/></g><g><g id="illustration_01_20_Layer33_0_FILL"><path d="M2291.61,220.235c-29.603,-30.946 -65.376,-46.449 -107.32,-46.509c-41.878,0.009 -77.647,15.497 -107.309,46.462c-29.663,31.034 -44.497,68.407 -44.502,112.117c0.062,43.78 14.894,81.143 44.497,112.089c29.669,31.015 65.443,46.518 107.32,46.509c41.945,0.06 77.714,-15.428 107.308,-46.463c29.661,-30.965 44.494,-68.303 44.499,-112.013c-0.062,-43.781 -14.893,-81.178 -44.493,-112.192Z" style="fill:#eefad3;fill-rule:nonzero;"/></g><path id="illustration_01_20_Layer33_0_1_STROKES" d="M2336.07,332.42c-0.005,43.71 -14.838,81.048 -44.499,112.013c-29.594,31.035 -65.363,46.522 -107.307,46.462c-41.877,0.009 -77.65,-15.493 -107.32,-46.508c-29.602,-30.946 -44.434,-68.308 -44.496,-112.088c0.005,-43.71 14.839,-81.082 44.502,-112.116c29.661,-30.966 65.43,-46.453 107.307,-46.462c41.944,0.06 77.717,15.563 107.32,46.508c29.6,31.015 44.431,68.412 44.493,112.191Z" style="fill:none;fill-rule:nonzero;stroke:#eefad3;stroke-width:15.2px;"/></g><g><g id="illustration_01_20_Layer32_0_FILL"><path d="M2367.88,212.077c-36.49,-49.257 -85.383,-78.052 -146.679,-86.384c-61.143,-8.312 -116.746,6.277 -166.811,43.768c-50.065,37.49 -79.937,86.908 -89.616,148.254c-6.046,39.139 -2.693,76.009 10.059,110.611l13.535,28.086c2.688,4.937 5.485,9.929 8.392,14.974c11.196,19.414 24.456,39.463 39.779,60.148c61.828,83.835 144.541,162.864 248.139,237.086l23.526,-44.803c18.522,-37.443 35.029,-75.082 49.521,-112.915c44.651,-116.967 62.105,-214.931 52.363,-293.893l-1.176,-8.317c-5.15,-34.435 -18.827,-66.64 -41.032,-96.615m-244.613,70.552c16.116,-19.563 35.974,-29.869 59.574,-30.917c23.778,-1.181 44.405,7.219 61.881,25.201c17.452,18.136 26.613,40.505 27.483,67.107c1.025,26.622 -6.521,49.715 -22.638,69.278c-16.051,19.651 -35.921,30.034 -59.61,31.149c-23.689,1.114 -44.304,-7.363 -61.845,-25.433c-17.387,-18.048 -26.56,-40.34 -27.52,-66.875c-1.024,-26.622 6.534,-49.792 22.675,-69.51Z" style="fill:#e5595d;fill-rule:nonzero;"/></g><path id="illustration_01_20_Layer32_0_1_STROKES" d="M2367.74,212.121c22.205,29.975 35.882,62.18 41.032,96.614l1.175,8.318c9.742,78.961 -7.713,176.924 -52.363,293.891c-14.493,37.833 -31,75.471 -49.522,112.915l-23.526,44.802c-103.598,-74.222 -186.31,-153.251 -248.137,-237.085c-15.323,-20.685 -28.583,-40.734 -39.779,-60.148c-2.907,-5.045 -5.704,-10.036 -8.392,-14.973l-13.535,-28.087c-12.752,-34.601 -16.104,-71.471 -10.058,-110.61c9.679,-61.345 39.551,-110.763 89.616,-148.253c50.065,-37.491 105.668,-52.08 166.811,-43.768c61.296,8.333 110.189,37.128 146.678,86.384Zm-123.158,64.835c17.452,18.137 26.613,40.506 27.483,67.107c1.024,26.622 -6.522,49.715 -22.638,69.278c-16.052,19.651 -35.922,30.034 -59.611,31.148c-23.689,1.115 -44.303,-7.362 -61.844,-25.432c-17.387,-18.049 -26.56,-40.34 -27.519,-66.875c-1.025,-26.622 6.534,-49.792 22.674,-69.51c16.117,-19.563 35.975,-29.868 59.574,-30.916c23.778,-1.182 44.405,7.219 61.881,25.2Z" style="fill:none;fill-rule:nonzero;stroke:#e5595d;stroke-width:15.2px;"/></g><g><g id="illustration_01_20_Layer31_0_FILL"><path d="M5347.67,1343.51l2.298,122.088l156.973,1.705l-2.446,-121.819l-156.825,-1.974Z" style="fill:#e4e4e4;fill-rule:nonzero;"/></g></g><g><g id="illustration_01_20_Layer30_0_FILL"><path d="M5605.65,1321.38l-45.006,127.129l183.921,60.096l44.997,-126.854l-183.912,-60.371Z" style="fill:#e4e4e4;fill-rule:nonzero;"/></g></g><g><g id="illustration_01_20_Layer29_0_FILL"><path d="M5524.76,1353.61l-98.129,-87.72l-95.735,89.674l193.864,-1.954Z" style="fill:#32552b;fill-rule:nonzero;"/></g></g><g><g id="illustration_01_20_Layer28_0_FILL"><path d="M5809.06,1392.33l-70.198,-137.825l-154.707,63.176l224.905,74.649Z" style="fill:#59984d;fill-rule:nonzero;"/></g></g><g><g id="illustration_01_20_Layer25_0_FILL"><path d="M4144.7,941.291l20.384,118.613l155.53,-33.881l-20.389,-118.475l-155.525,33.743Z" style="fill:#e4e4e4;fill-rule:nonzero;"/></g></g><g><g id="illustration_01_20_Layer24_0_FILL"><path d="M4210.41,848.515l-81.478,105.721l191.304,-37.207l-109.826,-68.514Z" style="fill:#32552b;fill-rule:nonzero;"/></g></g><g><g id="illustration_01_20_Layer22_0_FILL"><path d="M5476.48,1431.46l-13.817,99.579l125.241,12.328l13.817,-99.579l-125.241,-12.328Z" style="fill:#fff;fill-rule:nonzero;"/></g></g><g><g id="illustration_01_20_Layer21_0_FILL"><path d="M5460.38,1435.91l162.334,19.239l-69.83,-82.428l-92.504,63.189Z" style="fill:#4a7e40;fill-rule:nonzero;"/></g></g><g><g id="illustration_01_20_Layer19_0_FILL"><path d="M5504.6,837.722l17.85,-220.817l-301.203,-20.808l-18.139,221.228l301.492,20.397Z" style="fill:#e4e4e4;fill-rule:nonzero;"/></g></g><g><g id="illustration_01_20_Layer18_0_FILL"><path d="M5559.07,633.758l-171.04,-181.372l-202.01,159.613l373.05,21.759Z" style="fill:#32552b;fill-rule:nonzero;"/></g></g><g><g id="illustration_01_20_Layer15_0_FILL"><path d="M1282.01,2465l45.514,711.474l457.743,-21.558l-14.289,-813.74l-488.968,123.824Z" style="fill:#508946;fill-rule:nonzero;"/><path d="M1785.26,3154.91l1618.07,-26.266l151.628,-852.115c-327.585,-39.972 -922.246,-18.425 -1783.98,64.641l14.289,813.74Z" style="fill:#406e38;fill-rule:nonzero;"/></g><path id="illustration_01_20_Layer15_0_1_STROKES" d="M3554.96,2276.53l-151.628,852.115l-1618.07,26.266l-457.743,21.558l-45.514,-711.474" style="fill:none;fill-rule:nonzero;stroke:#417600;stroke-width:15.2px;"/><path id="illustration_01_20_Layer15_0_2_STROKES" d="M1282.01,2465l488.968,-123.824" style="fill:none;fill-rule:nonzero;stroke:#508946;stroke-width:15.2px;"/><path id="illustration_01_20_Layer15_0_3_STROKES" d="M1770.98,2341.17c861.737,-83.066 1456.4,-104.613 1783.98,-64.641m-1769.69,878.381l-14.289,-813.74" style="fill:none;fill-rule:nonzero;stroke:#406e38;stroke-width:15.2px;"/></g><g><g id="illustration_01_20_Layer13_0_FILL"><path d="M1901.75,2874.03l611.243,-10.145l-202.149,-1936.68l-600.617,88.151l191.523,1858.68Z" style="fill:#44733a;fill-rule:nonzero;"/><path d="M2834.89,918.063l-524.047,9.133l202.149,1936.68l512.319,-192.69l-190.421,-1753.13Z" style="fill:#32552b;fill-rule:nonzero;"/></g></g><g><g id="illustration_01_20_Layer12_0_MEMBER_0_FILL"><path d="M1574.4,1529.29c78.546,-58.115 114.156,-97.828 106.83,-119.139c-7.411,-21.522 -55.488,-18.132 -144.231,10.172c-88.735,28.201 -192.211,72.831 -310.429,133.891c-118.321,61.052 -216.707,120.691 -295.16,178.914c-78.444,58.121 -114.007,97.889 -106.689,119.302c7.428,21.318 55.505,17.927 144.231,-10.172c88.743,-28.303 192.279,-73.032 310.608,-134.187c118.218,-61.06 216.498,-120.653 294.84,-178.781Z" style="fill:#32552b;fill-rule:nonzero;"/></g><path id="illustration_01_20_Layer12_0_MEMBER_0_1_STROKES" d="M1681.12,1410.3c7.326,21.311 -28.283,61.024 -106.829,119.138c-78.341,58.127 -176.62,117.719 -294.837,178.777c-118.328,61.154 -221.863,105.883 -310.605,134.186c-88.725,28.098 -136.802,31.489 -144.23,10.171c-7.317,-21.413 28.246,-61.18 106.689,-119.3c78.452,-58.223 176.838,-117.86 295.157,-178.912c118.217,-61.058 221.692,-105.688 310.426,-133.889c88.742,-28.302 136.818,-31.693 144.229,-10.171Z" style="fill:none;fill-rule:nonzero;stroke:#32552b;stroke-width:15.2px;"/></g><g><g id="illustration_01_20_Layer12_1_MEMBER_0_MEMBER_0_FILL"><path d="M1266.45,1493.35l-117.828,71.138l543.025,1234.35c32.789,-1.734 61.314,-15.495 85.575,-41.283l-510.772,-1264.2Z" style="fill:#4a7e40;fill-rule:nonzero;"/></g><path id="illustration_01_20_Layer12_1_MEMBER_0_MEMBER_0_1_STROKES" d="M1148.5,1564.64l543.017,1234.34c32.789,-1.733 61.314,-15.494 85.574,-41.282l-510.765,-1264.19l-117.826,71.137Z" style="fill:none;fill-rule:nonzero;stroke:#4a7e40;stroke-width:15.2px;"/></g><g><g id="illustration_01_20_Layer12_1_MEMBER_1_MEMBER_0_FILL"><path d="M1309.68,1086.02c-16.38,-5.346 -57.608,2.686 -123.684,24.094c-66.264,21.191 -122.573,46.038 -168.928,74.542c-46.44,28.293 -82.934,52.489 -109.483,72.588c-26.539,19.996 -50.27,41.967 -71.192,65.911l-11.938,522.835c55.923,-40.841 88.707,-64.86 98.351,-72.057c9.849,-7.184 87.008,-56.34 231.478,-147.468c144.376,-91.236 320.676,-164.954 528.898,-221.155l-373.502,-319.29Z" style="fill:#e5595d;fill-rule:nonzero;"/></g><path id="illustration_01_20_Layer12_1_MEMBER_1_MEMBER_0_1_STROKES" d="M824.339,1846.13c55.923,-40.84 88.706,-64.859 98.351,-72.056c9.848,-7.184 87.007,-56.34 231.475,-147.466c144.375,-91.235 320.673,-164.952 528.894,-221.152l-373.498,-319.288c-16.38,-5.345 -57.607,2.686 -123.683,24.094c-66.263,21.19 -122.571,46.037 -168.926,74.541c-46.44,28.293 -82.933,52.488 -109.482,72.587c-26.539,19.996 -50.27,41.966 -71.192,65.911l-11.939,522.829Z" style="fill:none;fill-rule:nonzero;stroke:#e5595d;stroke-width:15.2px;"/></g><g><g id="illustration_01_20_Layer11_0_FILL"><path d="M2261.23,2881.16c-49.124,-51.352 -109.644,-77.435 -181.561,-78.247c-71.917,-0.813 -134.126,23.883 -186.627,74.087c-52.502,50.204 -79.948,111.24 -82.338,183.108c-2.39,71.868 20.977,133.478 70.101,184.831c49.124,51.352 109.644,77.435 181.561,78.247c71.916,0.813 134.125,-23.883 186.627,-74.087c52.501,-50.204 79.947,-111.24 82.338,-183.108c2.39,-71.868 -20.977,-133.478 -70.101,-184.831m1880.2,-54.95c-71.917,-0.813 -134.126,23.883 -186.628,74.087c-52.501,50.204 -79.947,111.24 -82.337,183.108c-2.391,71.868 20.976,133.478 70.1,184.831c49.124,51.352 109.645,77.435 181.561,78.248c71.917,0.812 134.126,-23.884 186.627,-74.088c52.502,-50.204 79.948,-111.24 82.338,-183.108c2.39,-71.868 -20.977,-133.478 -70.101,-184.83c-49.124,-51.353 -109.644,-77.436 -181.56,-78.248Z" style="fill:#666;fill-rule:nonzero;"/></g></g><g><g id="illustration_01_20_Layer10_0_FILL"><path d="M1331.63,667.726c-39.697,38.059 -60.45,84.269 -62.258,138.631c-1.808,54.361 15.859,100.955 52.999,139.78c37.239,38.928 83.058,58.7 137.456,59.314c54.398,0.615 101.446,-18.107 141.143,-56.166c39.797,-37.956 60.599,-84.115 62.407,-138.476c1.808,-54.362 -15.908,-101.007 -53.147,-139.935c-37.14,-38.825 -82.91,-58.545 -137.308,-59.16c-54.398,-0.615 -101.496,18.056 -141.292,56.012Z" style="fill:#e5595d;fill-rule:nonzero;"/></g><path id="illustration_01_20_Layer10_0_1_STROKES" d="M1663.38,810.809c-1.808,54.361 -22.61,100.52 -62.407,138.476c-39.697,38.059 -86.745,56.781 -141.143,56.166c-54.398,-0.614 -100.217,-20.386 -137.456,-59.314c-37.14,-38.825 -54.807,-85.419 -52.999,-139.78c1.808,-54.362 22.561,-100.572 62.258,-138.631c39.796,-37.956 86.894,-56.627 141.292,-56.012c54.398,0.615 100.168,20.335 137.308,59.16c37.239,38.928 54.955,85.573 53.147,139.935Z" style="fill:none;fill-rule:nonzero;stroke:#e5595d;stroke-width:15.2px;"/></g><g><g id="illustration_01_20_Layer9_0_FILL"><path d="M1777.66,3443.64c71.916,0.812 134.125,-23.884 186.627,-74.088c52.502,-50.204 79.948,-111.24 82.338,-183.108c2.39,-71.868 -20.977,-133.478 -70.101,-184.83c-49.124,-51.353 -109.644,-77.436 -181.561,-78.248c-71.916,-0.813 -134.125,23.883 -186.627,74.087c-52.502,50.204 -79.947,111.24 -82.338,183.108c-2.39,71.868 20.977,133.478 70.101,184.831c49.124,51.352 109.644,77.435 181.561,78.248m13.887,-417.54c43.539,0.492 80.164,16.268 109.876,47.328c29.709,31.162 43.842,68.447 42.398,111.855c-1.447,43.509 -18.048,80.447 -49.803,110.812c-31.755,30.366 -69.402,45.302 -112.941,44.811c-43.437,-0.491 -80.012,-16.267 -109.724,-47.327c-29.712,-31.06 -43.844,-68.345 -42.397,-111.854c1.443,-43.408 18.044,-80.345 49.803,-110.813c31.755,-30.366 69.351,-45.303 112.788,-44.812Z" style="fill:#32552b;fill-rule:nonzero;"/><path d="M1901.42,3073.42c-29.712,-31.06 -66.337,-46.836 -109.876,-47.328c-43.437,-0.491 -81.033,14.446 -112.788,44.812c-31.759,30.468 -48.36,67.405 -49.803,110.813c-1.447,43.509 12.685,80.794 42.397,111.854c29.712,31.06 66.287,46.836 109.724,47.327c43.539,0.491 81.186,-14.445 112.941,-44.811c31.755,-30.365 48.356,-67.303 49.803,-110.812c1.444,-43.408 -12.689,-80.693 -42.398,-111.855Z" style="fill:#e5f7bb;fill-rule:nonzero;"/></g><path id="illustration_01_20_Layer9_0_1_STROKES" d="M1943.82,3185.28c-1.447,43.509 -18.048,80.447 -49.803,110.812c-31.755,30.366 -69.402,45.302 -112.941,44.811c-43.437,-0.491 -80.012,-16.267 -109.724,-47.327c-29.712,-31.06 -43.844,-68.345 -42.397,-111.854c1.443,-43.408 18.044,-80.345 49.803,-110.813c31.755,-30.366 69.351,-45.303 112.788,-44.812c43.539,0.492 80.164,16.268 109.876,47.328c29.709,31.162 43.842,68.447 42.398,111.855Zm102.804,1.161c-2.39,71.868 -29.836,132.904 -82.338,183.108c-52.502,50.204 -114.711,74.9 -186.627,74.088c-71.917,-0.813 -132.437,-26.896 -181.561,-78.248c-49.124,-51.353 -72.491,-112.963 -70.101,-184.831c2.391,-71.868 29.836,-132.904 82.338,-183.108c52.502,-50.204 114.711,-74.9 186.627,-74.087c71.917,0.812 132.437,26.895 181.561,78.248c49.124,51.352 72.491,112.962 70.101,184.83Z" style="fill:none;fill-rule:nonzero;stroke:#32552b;stroke-width:9.12px;"/></g><g><g id="illustration_01_20_Layer8_0_FILL"><path d="M3003.34,1774.26c-97.275,19.199 -147.869,41.312 -151.781,66.339l689.762,-4.496l274.933,-99.205l-594.695,-6.72c-48.193,10.163 -120.933,24.857 -218.219,44.082Z" style="fill:#406e38;fill-rule:nonzero;"/></g></g><g><g id="illustration_01_20_Layer7_0_FILL"><path d="M4075.39,2237.4l-210.987,-436.826c-24.436,-50.552 -47.381,-72.472 -68.834,-65.759l-289.083,71.701l222.227,713.624c295.713,84.863 552.683,280.767 770.91,587.71l125.721,-262.655l-36.332,-474.486l-0.139,-0.462c-1.848,-33.524 -19.658,-54.208 -53.431,-62.052l-460.052,-70.795Z" style="fill:#508946;fill-rule:nonzero;"/></g><path id="illustration_01_20_Layer7_0_1_STROKES" d="M2690.1,3025.19l0.13,19.204c-0.157,1.637 -0.312,3.222 -0.465,4.757m-164.63,-0.324c-0.396,-0.414 -0.843,-0.829 -1.342,-1.244l11.697,-74.375" style="fill:none;fill-rule:nonzero;stroke:#417600;stroke-width:15.2px;"/></g><g><g id="illustration_01_20_Layer7_1_FILL"><path d="M2611.35,2448.83l-88.012,612.569c90.378,80.495 275.568,78.901 555.569,-4.783l-104.612,-741.791l-362.945,134.005Z" style="fill:#406e38;fill-rule:nonzero;"/></g></g><g><g id="illustration_01_20_Layer6_0_MEMBER_0_FILL"><path d="M4222.56,3211.03c2.39,-71.867 -20.977,-133.478 -70.101,-184.83c-49.124,-51.353 -109.644,-77.435 -181.561,-78.248c-71.916,-0.813 -134.126,23.883 -186.627,74.087c-52.502,50.205 -79.948,111.241 -82.338,183.108c-2.39,71.868 20.977,133.478 70.101,184.831c49.124,51.353 109.644,77.435 181.561,78.248c71.916,0.812 134.125,-23.883 186.627,-74.088c52.501,-50.204 79.947,-111.24 82.338,-183.108m-145.202,-113.016c29.709,31.163 43.841,68.447 42.398,111.855c-1.447,43.509 -18.048,80.447 -49.803,110.812c-31.755,30.366 -69.402,45.303 -112.942,44.811c-43.436,-0.491 -80.011,-16.267 -109.723,-47.327c-29.712,-31.06 -43.845,-68.344 -42.397,-111.854c1.443,-43.407 18.044,-80.345 49.803,-110.813c31.755,-30.365 69.351,-45.303 112.787,-44.812c43.54,0.492 80.165,16.268 109.877,47.328Z" style="fill:#32552b;fill-rule:nonzero;"/><path d="M4119.76,3209.87c1.443,-43.408 -12.689,-80.692 -42.398,-111.855c-29.712,-31.06 -66.337,-46.836 -109.877,-47.328c-43.436,-0.491 -81.032,14.447 -112.787,44.812c-31.759,30.468 -48.36,67.406 -49.803,110.813c-1.448,43.51 12.685,80.794 42.397,111.854c29.712,31.06 66.287,46.836 109.723,47.327c43.54,0.492 81.187,-14.445 112.942,-44.811c31.755,-30.365 48.356,-67.303 49.803,-110.812Z" style="fill:#e5f7bb;fill-rule:nonzero;"/></g><path id="illustration_01_20_Layer6_0_MEMBER_0_1_STROKES" d="M4119.76,3209.87c-1.447,43.509 -18.048,80.447 -49.803,110.812c-31.755,30.366 -69.402,45.303 -112.942,44.811c-43.436,-0.491 -80.011,-16.267 -109.723,-47.327c-29.712,-31.06 -43.845,-68.344 -42.397,-111.854c1.443,-43.407 18.044,-80.345 49.803,-110.813c31.755,-30.365 69.351,-45.303 112.787,-44.812c43.54,0.492 80.165,16.268 109.877,47.328c29.709,31.163 43.841,68.447 42.398,111.855Zm102.804,1.161c-2.391,71.868 -29.837,132.904 -82.338,183.108c-52.502,50.205 -114.711,74.9 -186.627,74.088c-71.917,-0.813 -132.437,-26.895 -181.561,-78.248c-49.124,-51.353 -72.491,-112.963 -70.101,-184.831c2.39,-71.867 29.836,-132.903 82.338,-183.108c52.501,-50.204 114.711,-74.9 186.627,-74.087c71.917,0.813 132.437,26.895 181.561,78.248c49.124,51.352 72.491,112.963 70.101,184.83Z" style="fill:none;fill-rule:nonzero;stroke:#32552b;stroke-width:9.12px;"/></g><g><g id="illustration_01_20_Layer6_0_MEMBER_1_FILL"><path d="M2633.83,3062.34l-20.984,-612.419l-1338.69,10.682l40.044,607.871l119.189,-1.572l1200.44,-4.562m1816.06,-525.45c-3.242,-53.497 -44.531,-87.76 -123.866,-102.79c-79.437,-15.031 -251.429,-38.942 -515.977,-71.734c-61.531,-124.03 -114.595,-238.719 -159.192,-344.067c-44.595,-105.24 -75.129,-168.57 -91.604,-189.989c-16.387,-21.415 -39.922,-33.305 -70.604,-35.67l-587.675,8.721c-41.292,8.32 -61.116,38.922 -59.471,91.808l5.011,1171.27l-2.31,0.127l646.741,-0.527l25.668,-46.103c22.552,-37.127 47.466,-71.359 74.744,-102.697c87.588,-100.605 182.783,-154.167 285.586,-160.687l318.554,3.6c13.676,1.691 26.636,6.446 38.879,14.265c39.133,25.124 63.824,76.201 74.072,153.23l36.111,199.194l110.334,1.246l11.741,-353.042c-0.95,-11.482 -3.043,-42.537 -6.278,-93.166c-3.338,-50.63 -6.826,-98.292 -10.464,-142.986Z" style="fill:#60a353;fill-rule:nonzero;"/><path d="M4234.38,2772.42c-12.243,-7.819 -25.203,-12.574 -38.879,-14.265l-318.554,-3.6c-102.803,6.52 -197.998,60.082 -285.586,160.687c-27.278,31.338 -52.192,65.57 -74.744,102.697l-25.668,46.103l-646.741,0.527l-207.451,-2.344c-0.99,0.501 -1.98,1.002 -2.971,1.503l0.046,-1.382l-1200.44,4.562l-119.189,1.572l6.287,125.273l2350.08,-7.088c6.812,-72.33 37.369,-134.458 91.67,-186.382c59.372,-56.477 129.728,-84.255 211.07,-83.336c81.341,0.919 149.798,30.266 205.37,88.041c48.929,51.043 75.323,110.998 79.182,179.864l97.471,-0.281l-10.773,-59.727l-36.111,-199.194c-10.248,-77.029 -34.939,-128.106 -74.072,-153.23Z" style="fill:#4f8644;fill-rule:nonzero;"/><path d="M3914.59,1964.75c-35.301,-73.091 -58.268,-118.976 -68.903,-137.655c-10.517,-18.599 -21.335,-26.147 -32.452,-22.642l-135.474,42.866c-26.081,10.065 -38.355,21.653 -36.821,34.763c1.622,13.125 13.124,43.211 34.508,90.259l170.325,374.456l208.933,-97.646c-58.004,-116.405 -104.709,-211.205 -140.116,-284.401Z" style="fill:#fff;fill-rule:nonzero;"/></g></g><g><g id="illustration_01_20_Layer6_0_MEMBER_1_MEMBER_0_FILL"><path d="M3505.27,2910.89c5.853,-34.243 10.599,-75.257 14.238,-123.044c3.54,-47.889 7.903,-145.185 13.09,-291.886l-571.03,-6.452l7.965,467.713c-1.408,26.919 12.357,41.362 41.295,43.327l386.187,3.75c61.068,3.455 97.153,-27.681 108.255,-93.408Z" style="fill:#60a353;fill-rule:nonzero;"/></g><path id="illustration_01_20_Layer6_0_MEMBER_1_MEMBER_0_1_STROKES" d="M2961.57,2489.51l571.03,6.452c-5.187,146.701 -9.55,243.997 -13.09,291.886c-3.639,47.787 -8.385,88.801 -14.238,123.044c-11.102,65.727 -47.187,96.863 -108.255,93.408l-386.187,-3.75c-28.938,-1.965 -42.703,-16.408 -41.295,-43.327l-7.965,-467.713Z" style="fill:none;fill-rule:nonzero;stroke:#60a353;stroke-width:15.2px;"/></g><g><g id="illustration_01_20_Layer6_0_MEMBER_1_MEMBER_0_MEMBER_0_FILL"><path d="M3064.56,2558.88c-5.03,0.251 -9.056,1.127 -12.078,2.629c-4.374,2.101 -6.37,5.1 -5.987,8.996c0.636,5.538 6.315,8.879 17.038,10.024l142.491,0.382c5.849,-0.242 10.297,-1.472 13.343,-3.69c3.052,-2.424 4.466,-4.866 4.24,-7.326c-0.218,-2.665 -1.938,-4.887 -5.158,-6.664c-2.418,-1.256 -4.592,-2.152 -6.521,-2.685c-3.251,-0.856 -7.494,-1.16 -12.729,-0.912l-134.639,-0.754Z" style="fill:#32552b;fill-rule:nonzero;"/></g><path id="illustration_01_20_Layer6_0_MEMBER_1_MEMBER_0_MEMBER_0_1_STROKES" d="M3064.56,2558.88c-5.03,0.251 -9.056,1.127 -12.078,2.629c-4.374,2.101 -6.37,5.1 -5.987,8.996c0.636,5.538 6.315,8.879 17.038,10.024l142.491,0.382c5.849,-0.242 10.297,-1.472 13.343,-3.69c3.052,-2.424 4.466,-4.866 4.24,-7.326c-0.218,-2.665 -1.938,-4.887 -5.158,-6.664c-2.418,-1.256 -4.592,-2.152 -6.521,-2.685c-3.251,-0.856 -7.494,-1.16 -12.729,-0.912l-134.639,-0.754Z" style="fill:none;fill-rule:nonzero;stroke:#32552b;stroke-width:9.12px;"/></g><g><g id="illustration_01_20_Layer6_0_MEMBER_1_MEMBER_1_FILL"><path d="M3498.05,1916.88c-5.338,-0.386 -19.518,-0.803 -42.54,-1.249l-503.516,15.818l10.172,461.44l56.857,0.642l663.68,-1.411l-143.65,-436.986c-5.248,-15.862 -12.081,-26.13 -20.498,-30.802c-8.327,-4.578 -15.162,-7.062 -20.505,-7.452Z" style="fill:#fff;fill-rule:nonzero;"/></g><path id="illustration_01_20_Layer6_0_MEMBER_1_MEMBER_1_1_STROKES" d="M2951.99,1931.44l503.516,-15.818c23.022,0.446 37.202,0.863 42.54,1.249c5.343,0.39 12.203,2.9 20.58,7.53c8.367,4.62 15.175,14.862 20.423,30.724l143.65,436.986l-663.68,1.411l-56.857,-0.642l-10.172,-461.44Z" style="fill:none;fill-rule:nonzero;stroke:#fff;stroke-width:15.2px;"/></g><g><g id="illustration_01_20_Layer6_0_MEMBER_1_MEMBER_2_MEMBER_0_FILL"><path d="M3648.16,2187.41c-11.639,-7.506 -27.124,-14.901 -46.456,-22.186c-18.439,79.88 -25.14,142.686 -20.102,188.42c4.939,45.63 10.108,75.081 15.509,88.354c38.877,-7.242 64.564,-13.865 77.062,-19.868c12.395,-6.005 22.105,-11.374 29.129,-16.109c6.819,-4.736 12.644,-11.942 17.475,-21.616c4.933,-9.674 7.164,-18.2 6.692,-25.58c-0.568,-7.585 -2.443,-17.438 -5.627,-29.558c-3.184,-12.121 -10.163,-33.4 -20.936,-63.836c-10.872,-30.54 -19.522,-49.328 -25.95,-56.365c-6.222,-7.035 -15.154,-14.253 -26.796,-21.656Z" style="fill:#32552b;fill-rule:nonzero;"/></g><path id="illustration_01_20_Layer6_0_MEMBER_1_MEMBER_2_MEMBER_0_1_STROKES" d="M3597.11,2442c-5.401,-13.273 -10.57,-42.724 -15.509,-88.354c-5.038,-45.734 1.663,-108.54 20.102,-188.42c19.332,7.285 34.817,14.68 46.456,22.186c11.642,7.403 20.574,14.621 26.796,21.656c6.428,7.037 15.078,25.825 25.95,56.365c10.773,30.436 17.752,51.715 20.936,63.836c3.184,12.12 5.059,21.973 5.627,29.558c0.472,7.38 -1.759,15.906 -6.692,25.58c-4.831,9.674 -10.656,16.88 -17.475,21.616c-7.024,4.735 -16.734,10.104 -29.129,16.109c-12.498,6.003 -38.185,12.626 -77.062,19.868Z" style="fill:none;fill-rule:nonzero;stroke:#32552b;stroke-width:9.12px;"/></g><g><g id="illustration_01_20_Layer6_0_MEMBER_2_FILL"><path d="M4606.11,2697.81l-140.302,118.7c26.081,59.994 33.012,182.867 20.791,368.619l150.503,-148.08c10.729,-248.643 0.398,-361.723 -30.992,-339.239Z" style="fill:#43723a;fill-rule:nonzero;"/><path d="M4458.89,2802.61c-6.644,-3.791 -14.416,-7.361 -23.317,-10.71c-49.158,-18.643 -132.713,-30.033 -250.666,-34.171l111.604,425.256l190.087,2.148c12.221,-185.752 5.29,-308.625 -20.791,-368.619l-3.597,-7.414c-1.796,-3.568 -2.903,-5.732 -3.32,-6.49Z" style="fill:#4f8644;fill-rule:nonzero;"/></g></g><g><path id="illustration_01_20_Layer5_0_1_STROKES" d="M3708.14,420.826l321.685,709.064" style="fill:none;fill-rule:nonzero;stroke:#417600;stroke-width:45.59px;"/></g><g><g id="illustration_01_20_Layer4_0_FILL"><path d="M3731.57,428.477l173.129,370.882l416.054,-187.174l-173.211,-370.679l-415.972,186.971Z" style="fill:#e5595d;fill-rule:nonzero;"/></g></g><g><g id="illustration_01_20_Layer4_0_MEMBER_0_FILL"><path d="M4181.73,510.622l-42.069,-95.526l-266.262,119.061l42.069,95.526l266.262,-119.061Z" style="fill:#fff;fill-rule:nonzero;"/></g></g><g><g id="illustration_01_20_Layer4_0_MEMBER_1_FILL"><path d="M4038.02,673.525l96.55,-44.109l-120.702,-260.171l-96.55,44.109l120.702,260.171Z" style="fill:#fff;fill-rule:nonzero;"/></g></g><g><path id="illustration_01_20_Layer3_0_1_STROKES" d="M3708.14,420.826l321.685,709.064" style="fill:none;fill-rule:nonzero;stroke:#417600;stroke-width:45.59px;"/></g></g></svg>