<svg version="1.1" id="Layer_1" xmlns="http://www.w3.org/2000/svg" x="0px" y="0px" viewBox="0 0 22.6 4.5" style="enable-background:new 0 0 22.6 4.5" xml:space="preserve"><g id="Page-1"><g id="bank-note"><path id="Combined-Shape" d="M4.8,4.5C4.9,4.5,5,4.5,5,4.4c0.1,0,0.4-0.1,0.4-0.1C7.6,3.5,9,3.2,11.3,3.2 c2.3,0,3.5,0.3,5.6,1.1c0.2,0.1,0.4,0.2,0.6,0.2h1.4c-0.6-0.2-1.2-0.4-1.9-0.7c-2.1-0.9-3.3-1.1-5.7-1.1c-2.4,0-3.8,0.3-6,1.1 C5.2,3.9,5,4,4.9,4C4.3,4.2,3.8,4.4,3.4,4.5H4.8L4.8,4.5z M4.8,0C3,0.7,1.8,0.9,0,0.9l0,0V0.5c1.3,0,2.2-0.1,3.4-0.5H4.8L4.8,0z M17.5,0c1.8,0.7,3,0.9,5.1,0.9V0.5c-1.5,0-2.6-0.1-3.7-0.5H17.5L17.5,0z M0,3.2c1.9,0,3.1-0.3,5-1C5.1,2.1,5.4,2,5.4,2 C7.6,1.2,9,0.9,11.3,0.9c2.3,0,3.5,0.3,5.6,1.1c2.1,0.9,3.3,1.1,5.7,1.1V2.7c-2.3,0-3.5-0.3-5.6-1.1c-2.1-0.9-3.3-1.1-5.7-1.1 c-2.4,0-3.8,0.3-6,1.1c0,0-0.3,0.1-0.4,0.1c-1.9,0.7-3,1-4.9,1V3.2L0,3.2L0,3.2z" style="fill-rule:evenodd;clip-rule:evenodd;fill:#A2B3C3"/></g></g></svg>