<svg xmlns="http://www.w3.org/2000/svg" width="8" height="17" viewBox="0 0 8 17"><g><path d="M3,1H5A2,2,0,0,1,7,3V14a2,2,0,0,1-2,2H3a2,2,0,0,1-2-2V3A2,2,0,0,1,3,1Z" fill="hsl(0, 0%, 100%)"/><path d="M4.002,12.867 m-1.639,0 a1.639,1.639 0 1,0 3.278,0 a1.639,1.639 0 1,0 -3.278,0" fill="hsl(180, 54%, 42%)"/><path d="M4.002,8.497 m-1.639,0 a1.639,1.639 0 1,0 3.278,0 a1.639,1.639 0 1,0 -3.278,0" fill="hsl(50, 100%, 70%)"/><path d="M4.002,4.128 m-1.639,0 a1.639,1.639 0 1,0 3.278,0 a1.639,1.639 0 1,0 -3.278,0" fill="hsl(0, 87%, 59%)"/><path d="M5,1A2,2,0,0,1,7,3V14a2,2,0,0,1-2,2H3a2,2,0,0,1-2-2V3A2,2,0,0,1,3,1H5M5,0H3A3,3,0,0,0,0,3V14a3,3,0,0,0,3,3H5a3,3,0,0,0,3-3V3A3,3,0,0,0,5,0Z" fill="hsl(30, 7%, 84%)"/></g></svg>