<?xml version="1.0" encoding="UTF-8"?><svg id="Layer_2" xmlns="http://www.w3.org/2000/svg" viewBox="0 0 71.93 72.13"><defs><style>.cls-1{fill:#fff;}.cls-2{fill:#60a351;}</style></defs><g id="Layer_3_copy_2"><g><path class="cls-1" d="M4.71,71.13c-2.04,0-3.71-1.66-3.71-3.71V18.04c0-.98,.38-1.9,1.06-2.6L15.16,2.11c.69-.71,1.66-1.11,2.64-1.11h49.43c2.04,0,3.71,1.66,3.71,3.71V52.97c0,.99-.38,1.91-1.08,2.61l-14.37,14.46c-.7,.71-1.64,1.09-2.63,1.09H4.71Z"/><path class="cls-1" d="M67.23,2c1.49,0,2.71,1.21,2.71,2.71V52.97c0,.71-.28,1.4-.79,1.91l-14.37,14.46c-.51,.51-1.2,.8-1.92,.8H4.71c-1.49,0-2.71-1.21-2.71-2.71V18.04c0-.71,.28-1.39,.78-1.9L15.87,2.81c.51-.52,1.2-.81,1.93-.81h49.43m0-2H17.8c-1.25,0-2.48,.51-3.36,1.41L1.35,14.74c-.87,.89-1.35,2.06-1.35,3.3v49.39c0,2.6,2.11,4.71,4.71,4.71H52.86c1.24,0,2.46-.51,3.34-1.39l14.37-14.46c.88-.89,1.37-2.07,1.37-3.32V4.71c0-2.6-2.11-4.71-4.71-4.71h0Z"/></g><path class="cls-2" d="M2,18.15H22.27v51.99H4.53c-1.4,0-2.53-1.13-2.53-2.53V18.15Z"/><path class="cls-2" d="M53.99,18.15v50.93c0,.58-.47,1.05-1.05,1.05h-19.21V18.15h20.27Z"/><path class="cls-2" d="M37.07,2l-14.42,14.18H2.69L15.88,2.8c.5-.51,1.19-.8,1.9-.8h19.28Z"/><path class="cls-2" d="M67.91,2.6l-13.38,13.57h-19.44L49.49,2h18.16c.32,0,.47,.38,.25,.6Z"/><path class="cls-2" d="M69.5,3.96l-13.45,13.55v50.56l13.19-13.28c.44-.45,.69-1.05,.69-1.68V4.14c0-.23-.27-.34-.43-.18Z"/></g></svg>