<?xml version="1.0" encoding="UTF-8"?><svg id="Layer_2" xmlns="http://www.w3.org/2000/svg" viewBox="0 0 41.21 79.82"><defs><style>.cls-1{stroke:#60a351;stroke-width:7px;}.cls-1,.cls-2{fill:none;stroke-linecap:round;stroke-linejoin:round;}.cls-3{fill:#fff;}.cls-4{fill:#60a351;}.cls-2{stroke:#fff;stroke-width:12px;}</style></defs><g id="Layer_3_copy_3"><path class="cls-3" d="m6.1,37.07c-1.3,0-2.35-1.06-2.35-2.35V10.02c0-.62.24-1.21.67-1.65L10.97,1.7c.44-.45,1.05-.7,1.68-.7h24.71c1.3,0,2.35,1.06,2.35,2.35v24.13c0,.63-.24,1.21-.68,1.66l-7.18,7.23c-.44.44-1.05.69-1.67.69H6.1Z"/><path class="cls-3" d="m37.36,2c.75,0,1.35.61,1.35,1.35v24.13c0,.36-.14.7-.39.95l-7.18,7.23c-.25.26-.6.4-.96.4H6.1c-.75,0-1.35-.61-1.35-1.35V10.02c0-.35.14-.7.39-.95l6.55-6.67c.25-.26.6-.4.97-.4h24.71m0-2H12.65c-.89,0-1.77.37-2.39,1L3.71,7.67c-.62.63-.96,1.47-.96,2.35v24.69c0,1.85,1.5,3.35,3.35,3.35h24.08c.89,0,1.75-.36,2.38-.99l7.18-7.23c.63-.63.97-1.47.97-2.36V3.35c0-1.85-1.5-3.35-3.35-3.35h0Z"/><path class="cls-4" d="m4.74,10.07h10.13v25.99H6.01c-.7,0-1.26-.57-1.26-1.26V10.07Z"/><path class="cls-4" d="m30.74,10.07v25.47c0,.29-.24.53-.53.53h-9.61V10.07h10.13Z"/><path class="cls-4" d="m22.28,2l-7.21,7.09H5.09l6.6-6.69c.25-.25.59-.4.95-.4h9.64Z"/><path class="cls-4" d="m37.7,2.3l-6.69,6.79h-9.72l7.2-7.09h9.08c.16,0,.24.19.13.3Z"/><path class="cls-4" d="m38.5,2.98l-6.73,6.77v25.28l6.59-6.64c.22-.22.35-.53.35-.84V3.07c0-.11-.14-.17-.22-.09Z"/><polyline class="cls-2" points="35.21 45.52 20.62 59.77 20.59 59.77 6 45.52"/><polyline class="cls-1" points="35.21 45.52 20.62 59.77 20.59 59.77 6 45.52"/><polyline class="cls-2" points="35.21 59.58 20.62 73.82 20.59 73.82 6 59.58"/><polyline class="cls-1" points="35.21 59.58 20.62 73.82 20.59 73.82 6 59.58"/></g></svg>