<?xml version="1.0" encoding="UTF-8"?><svg id="Layer_2" xmlns="http://www.w3.org/2000/svg" viewBox="0 0 98.92 63.84"><defs><style>.cls-1{fill:#fff;}.cls-2{fill:#60a351;}</style></defs><g id="Layer_2_copy"><polygon class="cls-1" points="84.26 54.96 12.81 54.96 23.08 6.93 61.12 6.93 84.26 33.98 84.26 54.96"/><g><path class="cls-2" d="M71.65,62.84c-5.12,0-9.83-2.48-12.73-6.66h-20.23c-2.89,4.18-7.61,6.66-12.73,6.66s-9.83-2.48-12.73-6.66H6.64c-3.11,0-5.64-2.53-5.64-5.64v-16.78c0-5.24,4.15-9.52,9.34-9.75L18.16,5.75c1.23-2.88,4.05-4.75,7.2-4.75h30.22c2.45,0,4.78,1.06,6.39,2.91l17.62,20.2,10.97,.11c2.13,.02,4.16,.96,5.55,2.58,1.39,1.61,2.02,3.75,1.73,5.86l-2.5,18.12c-.43,3.08-3.09,5.4-6.2,5.4h-4.77c-2.9,4.18-7.62,6.66-12.73,6.66Zm0-22.12c-3.65,0-6.62,2.97-6.62,6.62s2.97,6.62,6.62,6.62,6.62-2.97,6.62-6.62-2.97-6.62-6.62-6.62Zm-45.68,0c-3.65,0-6.62,2.97-6.62,6.62s2.97,6.62,6.62,6.62,6.62-2.97,6.62-6.62-2.97-6.62-6.62-6.62Zm40.77-16.89c.65,0,.93-.49,.99-.64,.07-.15,.26-.68-.18-1.18l-11.19-12.78c-.21-.24-.5-.37-.82-.38l-12.49-.13v15.11h23.69ZM27.21,8.56c-.48,0-.9,.31-1.04,.78l-3.98,13.07c-.1,.34-.04,.69,.17,.97,.21,.28,.53,.45,.89,.45h11.78V8.64l-7.8-.08v-1s-.01,1-.01,1Z"/><path class="cls-1" d="M55.58,2c2.16,0,4.22,.94,5.64,2.57l17.92,20.54,11.42,.11c3.87,.04,6.83,3.47,6.3,7.3l-2.5,18.12c-.36,2.6-2.58,4.54-5.21,4.54h-5.3c-2.58,4.01-7.08,6.66-12.2,6.66s-9.62-2.65-12.19-6.66h-21.3c-2.57,4.01-7.07,6.66-12.19,6.66s-9.62-2.65-12.19-6.66H6.64c-2.56,0-4.64-2.08-4.64-4.64v-16.78c0-4.84,3.93-8.76,8.77-8.76h.23L19.08,6.14c1.07-2.51,3.54-4.14,6.28-4.14h30.22M23.24,24.83h12.78V7.65l-8.79-.09s-.02,0-.02,0c-.92,0-1.73,.61-2,1.49l-3.98,13.07c-.41,1.35,.6,2.71,2.01,2.71m18.81,0h24.69c1.8,0,2.76-2.12,1.57-3.48l-11.19-12.78c-.39-.45-.96-.71-1.56-.72l-13.51-.14V24.83m29.6,30.13c4.21,0,7.62-3.41,7.62-7.62s-3.41-7.62-7.62-7.62-7.62,3.41-7.62,7.62,3.41,7.62,7.62,7.62m-45.68,0c4.21,0,7.62-3.41,7.62-7.62s-3.41-7.62-7.62-7.62-7.62,3.41-7.62,7.62,3.41,7.62,7.62,7.62M55.58,0H25.36c-3.55,0-6.73,2.1-8.12,5.36l-7.58,17.7c-5.42,.56-9.66,5.15-9.66,10.7v16.78c0,3.66,2.98,6.64,6.64,6.64h6.09c3.1,4.19,7.97,6.66,13.24,6.66s10.14-2.47,13.24-6.66h19.2c3.1,4.19,7.97,6.66,13.24,6.66s10.14-2.47,13.25-6.66h4.25c3.61,0,6.7-2.69,7.19-6.27l2.5-18.12c.33-2.39-.38-4.82-1.96-6.65-1.58-1.83-3.88-2.9-6.3-2.93l-10.52-.1L62.73,3.26c-1.8-2.07-4.41-3.26-7.15-3.26h0ZM23.24,22.83s-.05,0-.08-.04c-.03-.04-.02-.07-.01-.09l3.98-13.07s.05-.07,.08-.07l6.81,.07v13.2h-10.78Zm20.81,0V9.73l11.49,.12s.06,.02,.07,.03l11.2,12.79s.04,.05,.02,.11c-.02,.05-.04,.05-.08,.05h-22.69Zm27.6,30.13c-3.1,0-5.62-2.52-5.62-5.62s2.52-5.62,5.62-5.62,5.62,2.52,5.62,5.62-2.52,5.62-5.62,5.62h0Zm-45.68,0c-3.1,0-5.62-2.52-5.62-5.62s2.52-5.62,5.62-5.62,5.62,2.52,5.62,5.62-2.52,5.62-5.62,5.62h0Z"/></g></g></svg>