<?xml version="1.0" standalone="no"?>
<!DOCTYPE svg PUBLIC "-//W3C//DTD SVG 20010904//EN"
 "http://www.w3.org/TR/2001/REC-SVG-20010904/DTD/svg10.dtd">
<svg version="1.0" xmlns="http://www.w3.org/2000/svg"
 width="512.000000pt" height="512.000000pt" viewBox="0 0 512.000000 512.000000"
 preserveAspectRatio="xMidYMid meet">
<metadata>
Created by potrace 1.14, written by Peter Selinger 2001-2017
</metadata>
<g transform="translate(0.000000,512.000000) scale(0.100000,-0.100000)"
fill="#000000" stroke="none">
<path d="M2390 5084 c-8 -1 -62 -10 -120 -19 -531 -83 -1020 -402 -1334 -870
-45 -67 -157 -283 -185 -355 -59 -158 -114 -377 -125 -505 -12 -125 -6 -448 9
-556 3 -20 8 -52 10 -70 4 -28 48 -225 59 -264 1 -5 8 -30 15 -55 6 -25 26
-85 43 -135 156 -458 407 -861 839 -1345 192 -216 851 -863 897 -882 27 -11
81 -9 105 4 91 47 686 592 688 629 0 8 2 25 5 37 5 31 -22 87 -55 113 -81 64
-617 588 -767 749 -434 470 -641 815 -740 1237 -32 136 -42 383 -20 478 28
117 36 145 62 202 192 421 666 629 1109 487 200 -65 388 -228 483 -418 80
-161 113 -371 79 -503 -54 -208 -240 -421 -618 -708 -62 -47 -118 -94 -125
-103 -19 -29 -23 -75 -8 -110 11 -28 84 -128 129 -178 5 -7 26 -31 45 -55 129
-159 398 -452 433 -471 41 -21 95 -11 150 28 270 196 557 463 710 661 259 338
376 662 377 1043 1 204 -4 250 -40 424 -131 636 -604 1179 -1220 1401 -95 34
-286 83 -353 91 -29 3 -72 10 -97 14 -42 8 -406 11 -440 4z m1117 -2721 c37
-24 183 -204 185 -227 8 -95 1 -109 -97 -191 -26 -22 -61 -52 -79 -68 -44 -39
-92 -52 -143 -38 -32 9 -55 26 -100 79 -32 36 -66 76 -77 87 -52 56 -63 131
-28 187 27 42 191 177 227 187 38 10 81 4 112 -16z"/>
<path d="M2515 3488 c-170 -36 -299 -207 -289 -384 13 -220 213 -379 432 -343
182 29 317 197 307 382 -4 87 -37 167 -95 230 -92 101 -222 143 -355 115z"/>
</g>
</svg>
